<?xml version="1.0" standalone="no"?>
<!DOCTYPE svg PUBLIC "-//W3C//DTD SVG 20010904//EN"
 "http://www.w3.org/TR/2001/REC-SVG-20010904/DTD/svg10.dtd">
<svg version="1.0" xmlns="http://www.w3.org/2000/svg"
 width="3200.000000pt" height="3200.000000pt" viewBox="0 0 3200.000000 3200.000000"
 preserveAspectRatio="xMidYMid meet">

<g transform="translate(0.000000,3200.000000) scale(0.100000,-0.100000)"
fill="#000000" stroke="none">
<path d="M19945 20340 c3 -5 64 -60 135 -121 72 -61 130 -115 130 -121 0 -5
12 -26 27 -46 30 -39 25 -37 -47 19 -70 55 -76 56 -40 5 19 -26 42 -52 50 -56
24 -13 105 -99 142 -151 46 -63 151 -179 163 -179 6 0 27 -27 48 -60 20 -33
32 -60 27 -60 -6 0 0 -15 14 -33 17 -22 22 -37 16 -43 -7 -7 -1 -22 15 -44 30
-41 32 -54 4 -40 -40 22 -34 -2 11 -41 50 -42 69 -50 47 -18 -8 11 -12 30 -9
41 5 19 7 19 33 -13 24 -28 30 -31 38 -19 7 10 4 24 -10 46 -26 43 -25 62 4
38 22 -19 22 -19 -1 7 -13 15 -22 30 -20 35 2 5 -43 64 -100 132 -57 67 -101
126 -98 131 3 5 -2 15 -12 22 -16 13 -16 13 -2 -6 14 -19 14 -19 -2 -6 -10 7
-16 17 -13 21 2 4 -7 18 -20 30 -14 13 -25 20 -25 15 0 -20 -97 95 -123 145
l-28 55 41 -40 c67 -64 293 -315 461 -510 220 -256 233 -272 222 -255 -25 40
-290 367 -369 455 -140 157 -406 420 -559 553 -126 110 -168 141 -150 112z"/>
<path d="M12460 19821 c-233 -44 -418 -213 -475 -436 -31 -122 -15 -277 41
-388 32 -63 339 -591 366 -630 l20 -28 28 59 c36 76 69 90 237 105 l121 10 90
151 c208 350 228 392 245 522 27 206 -72 417 -250 537 -118 80 -297 121 -423
98z m207 -373 c96 -44 163 -164 149 -267 -14 -100 -96 -194 -193 -221 -165
-47 -332 81 -333 253 -1 193 200 318 377 235z"/>
<path d="M20440 19638 c10 -18 32 -48 47 -65 23 -26 30 -30 40 -19 9 10 -1 24
-48 65 -54 48 -57 49 -39 19z"/>
<path d="M20636 19288 c21 -42 21 -41 34 -33 7 4 3 16 -10 36 -29 39 -45 37
-24 -3z"/>
<path d="M21366 18340 c19 -38 38 -70 42 -70 4 0 32 -37 62 -82 30 -45 72
-100 93 -123 83 -87 198 -262 142 -215 -24 20 -19 -15 5 -38 21 -19 60 -153
60 -204 0 -16 7 -45 15 -65 29 -70 -18 -68 -60 2 -30 52 -31 62 -5 70 66 21
-26 197 -208 400 -45 50 -93 114 -108 143 -35 69 -100 123 -87 72 3 -11 0 -27
-7 -35 -9 -11 -9 -22 0 -51 15 -44 -1 -61 -34 -38 -11 8 -31 14 -44 14 -28 0
-26 -9 24 -114 40 -82 40 -86 14 -109 -11 -9 -20 -29 -20 -45 0 -15 -5 -33
-11 -39 -15 -15 6 -115 37 -173 45 -86 47 -98 19 -132 -30 -35 -30 -53 -7
-207 15 -98 19 -111 31 -97 7 9 22 16 32 16 16 0 19 8 19 55 l0 54 40 12 c22
7 40 18 40 25 0 19 32 84 42 84 4 0 22 -13 41 -30 l34 -29 49 49 50 49 159
-308 c138 -267 162 -308 177 -300 14 8 21 2 38 -32 12 -22 23 -39 26 -37 2 3
-8 49 -22 102 -14 54 -24 117 -22 140 l3 41 22 -40 c12 -22 22 -35 23 -28 1
47 -202 663 -208 629 -2 -9 3 -35 12 -57 26 -63 17 -79 -12 -23 -15 28 -37 69
-49 91 -12 22 -20 43 -17 45 7 8 -155 317 -212 402 -55 83 -231 296 -244 296
-5 0 7 -31 26 -70z"/>
<path d="M21731 17980 c-1 -18 16 -46 23 -40 2 3 -2 16 -9 30 -8 15 -14 19
-14 10z"/>
<path d="M21750 17895 c0 -16 64 -128 67 -118 5 14 -47 123 -59 123 -4 0 -8
-2 -8 -5z"/>
<path d="M21456 16805 c-180 -50 -347 -204 -402 -373 -53 -158 -40 -318 34
-457 114 -212 428 -744 453 -767 32 -30 71 -36 112 -17 27 12 34 23 304 490
104 180 198 353 209 385 29 91 27 277 -5 364 -67 184 -222 325 -413 376 -66
17 -227 17 -292 -1z m233 -351 c76 -22 144 -92 167 -170 30 -105 3 -198 -80
-271 -158 -139 -411 -38 -433 172 -12 119 61 227 184 271 51 18 98 17 162 -2z"/>
<path d="M22272 15245 c0 -16 2 -22 5 -12 2 9 2 23 0 30 -3 6 -5 -1 -5 -18z"/>
<path d="M22263 15060 c0 -30 2 -43 4 -27 2 15 2 39 0 55 -2 15 -4 2 -4 -28z"/>
<path d="M22253 14920 c0 -25 2 -35 4 -22 2 12 2 32 0 45 -2 12 -4 2 -4 -23z"/>
<path d="M22243 14805 c0 -22 2 -30 4 -17 2 12 2 30 0 40 -3 9 -5 -1 -4 -23z"/>
<path d="M22232 14710 c0 -19 2 -27 5 -17 2 9 2 25 0 35 -3 9 -5 1 -5 -18z"/>
<path d="M22222 14620 c0 -19 2 -27 5 -17 2 9 2 25 0 35 -3 9 -5 1 -5 -18z"/>
<path d="M22212 14545 c0 -16 2 -22 5 -12 2 9 2 23 0 30 -3 6 -5 -1 -5 -18z"/>
<path d="M22202 14475 c0 -16 2 -22 5 -12 2 9 2 23 0 30 -3 6 -5 -1 -5 -18z"/>
<path d="M22192 14410 c0 -14 2 -19 5 -12 2 6 2 18 0 25 -3 6 -5 1 -5 -13z"/>
<path d="M22182 14350 c0 -14 2 -19 5 -12 2 6 2 18 0 25 -3 6 -5 1 -5 -13z"/>
<path d="M22172 14290 c0 -14 2 -19 5 -12 2 6 2 18 0 25 -3 6 -5 1 -5 -13z"/>
<path d="M22161 14234 c0 -11 3 -14 6 -6 3 7 2 16 -1 19 -3 4 -6 -2 -5 -13z"/>
<path d="M22151 14184 c0 -11 3 -14 6 -6 3 7 2 16 -1 19 -3 4 -6 -2 -5 -13z"/>
<path d="M22141 14134 c0 -11 3 -14 6 -6 3 7 2 16 -1 19 -3 4 -6 -2 -5 -13z"/>
<path d="M22131 14084 c0 -11 3 -14 6 -6 3 7 2 16 -1 19 -3 4 -6 -2 -5 -13z"/>
<path d="M22111 13994 c0 -11 3 -14 6 -6 3 7 2 16 -1 19 -3 4 -6 -2 -5 -13z"/>
<path d="M22101 13954 c0 -11 3 -14 6 -6 3 7 2 16 -1 19 -3 4 -6 -2 -5 -13z"/>
<path d="M21930 13373 c-46 -138 -161 -422 -260 -638 -29 -64 -80 -161 -213
-400 -69 -124 -294 -477 -344 -540 -14 -16 -75 -99 -138 -183 -136 -185 -303
-377 -461 -532 l-117 -115 80 91 c279 321 439 546 766 1074 129 210 281 499
340 650 35 89 157 544 146 548 -4 2 -25 -7 -46 -20 -21 -13 -47 -28 -58 -34
-12 -7 -21 -23 -23 -42 -2 -17 -10 -36 -19 -44 -13 -11 -18 -9 -31 10 -29 43
-71 21 -75 -41 -2 -19 -11 -42 -20 -52 -9 -9 -17 -23 -17 -31 0 -22 -44 -27
-78 -10 -17 9 -49 16 -71 16 -25 0 -71 15 -128 41 -48 22 -110 51 -138 64 -32
15 -78 25 -130 29 -144 11 -181 15 -207 25 -18 7 -36 5 -64 -5 -22 -8 -46 -17
-54 -20 -9 -3 -38 -42 -65 -87 -89 -146 -299 -459 -395 -587 -811 -1088 -1908
-1871 -3200 -2287 -165 -54 -194 -66 -259 -114 l-74 -54 -131 -10 -131 -10 -3
-37 c-2 -24 -13 -48 -33 -69 -30 -32 -41 -34 -121 -14 -27 7 -28 6 -28 -35 0
-41 1 -41 29 -35 16 3 32 2 35 -3 8 -13 -24 -40 -53 -44 -18 -2 -32 -18 -55
-65 -28 -56 -34 -62 -64 -62 -40 -1 -92 -26 -92 -45 0 -17 56 -66 76 -66 26 0
14 -15 -51 -63 -36 -27 -65 -55 -65 -63 0 -8 -10 -14 -24 -14 -32 0 -37 -19
-26 -97 9 -68 19 -83 58 -83 12 0 22 -4 22 -9 0 -27 -121 -32 -171 -7 -17 9
-37 16 -44 16 -16 0 -87 75 -79 83 4 4 1 7 -7 7 -17 0 -59 72 -59 99 0 9 -5
22 -11 28 -18 18 -3 40 30 48 32 7 43 25 16 25 -8 0 -15 9 -15 19 0 12 -9 21
-25 25 -28 7 -31 22 -11 49 12 15 18 16 35 7 26 -13 29 6 6 36 -17 22 -19 44
-5 44 6 0 10 -6 10 -14 0 -7 6 -19 14 -25 18 -15 23 -2 32 79 4 37 12 64 20
67 22 8 17 43 -5 43 -16 0 -20 -8 -23 -42 -3 -36 -7 -44 -26 -46 -36 -5 -52
14 -42 50 5 16 16 35 25 42 12 9 13 17 3 50 l-12 38 -86 -7 c-184 -15 -517
-22 -745 -14 -1325 46 -2574 490 -3633 1293 -74 55 -146 110 -160 121 l-27 20
23 -30 c84 -107 288 -328 453 -490 1118 -1097 2556 -1733 4124 -1825 1921
-112 3787 651 5098 2085 575 629 1050 1435 1316 2234 28 85 49 156 47 158 -2
2 -28 -67 -56 -154z m-372 -232 c-5 -24 -38 -27 -38 -3 0 10 3 21 6 25 11 11
35 -5 32 -22z"/>
</g>
</svg>
